<svg id="图层_1" data-name="图层 1" xmlns="http://www.w3.org/2000/svg" viewBox="0 0 1024 394.65"><defs><style>.cls-1{fill:#e70010;}.cls-2{fill:none;stroke:#e70010;stroke-miterlimit:10;stroke-width:3px;}</style></defs><title>天宫云CKE-logo2</title><path class="cls-1" d="M494.38,205.16l-7,22.58H478c-6.53,0-21.42-.28-25.8-1.49s-11-6-16.88-13.76l-29.64-51.32-34.88,51.41a76,76,0,0,1-14.29,11.12c-5.24,2.72-12.42,3.09-15.75,3.36-4.21.35-15.08.68-24.1.68H305l8.94-24.15h5.43c7,0,16,0,19.31-.62,4.77-.89,9.46-4.83,12.47-7.89l32.14-49.56H318.07l7.94-26h71l11.92-33h-72l7.94-25.11h162l-7.94,25.11H439.67l-10.92,33H504.9l-7.94,26H428.86l27.93,51.61c5.83,6.6,11.08,5.81,15,6.88a57.79,57.79,0,0,0,10.71,1.15Z"/><path class="cls-1" d="M554.44,97.24l8.94-31.15h78.42l4.37-12.91h29l-3.78,12.91h74.46L737.91,97H711.74l2-10.15H585.28l-3,10.42Zm-6.54,73.28H716.45s-4.41,28.58-5.55,32.84a67.27,67.27,0,0,1-4.64,12.93,32.58,32.58,0,0,1-6.44,8.84,19.21,19.21,0,0,1-10.1,5.15,63.29,63.29,0,0,1-12.16.93H532Zm14.1-9,13.9-57.75h140s-5.73,24.08-8,30.47c-1.79,5-3.1,11.23-5.59,15.45a25.12,25.12,0,0,1-11.42,9.53c-3.86,1.5-16.61,2.29-27.59,2.29Zm127.55,29.08L568,191.15l-6,20.38H669.18a20.06,20.06,0,0,0,10.42-2.71c4-2.41,6.55-4.42,7.79-7.83C688.57,197.79,689.55,190.61,689.55,190.61Zm-94.92-67.16-5,21.21h67.89c1.89,0,16.23.48,20.08-.6,3.15-.89,5.34-4.37,7.7-8.48l3.23-12.12Z"/><path class="cls-1" d="M792.95,61.73h149.3l-7.94,25.69H786Zm-26.75,55.1H945.06l-6,25.6H841.6l-40,59.49h90.31c2.81,0,4.7-8.27,5.68-9.36,0,0,0,7.7,0,7.69a3.69,3.69,0,0,0-.22-5l24.76-.62c11.38-1.12,14.74,6.36,15.36,10.21a18.62,18.62,0,0,1-.67,9.39,15.46,15.46,0,0,1-5.6,7.34c-2.28,1.78-6,3.3-10.87,4a75.89,75.89,0,0,1-10.8.88h-141V202.44l39.55-60H758.26Z"/><path class="cls-1" d="M979.84,177.47c-8.17-.06-21.49-2.9-33.06-.48a15.45,15.45,0,0,0-5.95,2.77c-.49.36-1.21.9-1.16,1.37.07.65,1.1,1,2.11.66,1.64-.49,6.8-2.13,8.46-2.57a26.36,26.36,0,0,1,6.36-.62C946,180.93,937,188.87,931.21,192.78c-4.91,3.3-10.59,3.88-16.52,2.71-1.22-.24-2.46-.46-3.29,1-5.79,10-20.2,9.85-28.25.4a10.93,10.93,0,0,0-4.74-3.1c-5.09-2-8.1-5.48-8.5-10.47-.36-4.6.69-9.08,5.52-11.44a7.37,7.37,0,0,0,4-4.69c2.38-6.19,5.89-11.6,13-14.31a20.32,20.32,0,0,1,11.49-.85c6.2,1.43,10.67,3.61,13.77,8.79,2.65,4.43,7.29,6.26,12.07,6.5,12.58.63,25,1.54,31.56,3a77.28,77.28,0,0,1,10.51,3.35c-2-.79-11.2-1.85-14.42-2.16-10.39-1-25.34.61-34.51,3.44-3.81,1.18-8.31,2.34-12.36,1.94-5.64-.56-8.07-3.44-7.25-6.91A4.62,4.62,0,0,1,908,166.4a3,3,0,0,1,3,3c-.06,2.12-2.29,4.07-4,2.42a4.37,4.37,0,0,0,6.23-.42,4.85,4.85,0,0,0-.71-6.74c-5-4-10.34-1.51-12.67,2.19-2.44,3.87-1.63,10,3,12.66,5.58,3.16,12.43,2.28,17.63.34,7.71-2.87,22.8-7,31.12-7,7.27-.06,16.12,1.8,23.27,3.09a123.81,123.81,0,0,0,12.52,1.5Zm-10.58-.71"/><path class="cls-1" d="M56.13,330.84l9.12.38c-1.78,4.94-4.45,9.71-8,12.32a20.57,20.57,0,0,1-12.5,3.91q-8.07,0-12.61-4.86T27.58,328.5a30.8,30.8,0,0,1,3-13.72A22.1,22.1,0,0,1,50.82,302q7.14,0,11.55,3.82c2.94,2.55,4.67,7,5.19,11.42L58.88,317a9.21,9.21,0,0,0-2.77-5.56,8.24,8.24,0,0,0-5.47-1.72,12,12,0,0,0-7,2.28,15.4,15.4,0,0,0-5.2,7.12,25.73,25.73,0,0,0-1.95,9.67q0,5.28,2.53,8.16a8.07,8.07,0,0,0,6.31,2.88,10.22,10.22,0,0,0,6.43-2.28A13.51,13.51,0,0,0,56.13,330.84Z"/><path class="cls-1" d="M77.3,346.67H68.69l9.21-44H86.5l-3.3,13.65a15.65,15.65,0,0,1,5.32-2.59,16.46,16.46,0,0,1,5.92-.29,9.25,9.25,0,0,1,5.71,2.81,7.81,7.81,0,0,1,2.25,5.82,32.41,32.41,0,0,1-.84,5.94l-3.9,18.62H89.05l4-19a27,27,0,0,0,.63-4,3.39,3.39,0,0,0-1-2.55,3.71,3.71,0,0,0-2.7-1,6.76,6.76,0,0,0-4.14,1.5,13,13,0,0,0-3.93,4.86,43.49,43.49,0,0,0-2,7.47Z"/><path class="cls-1" d="M132,346.67h-8.61l8.21-33h7.61l-.3,2.65a12.78,12.78,0,0,1,4.32-2.59,16.46,16.46,0,0,1,5.92-.29,9.25,9.25,0,0,1,5.71,2.81,7.81,7.81,0,0,1,2.25,5.82,32.41,32.41,0,0,1-.84,5.94l-3.9,18.62H143.8l4-19a27,27,0,0,0,.63-4,3.39,3.39,0,0,0-1-2.55,3.71,3.71,0,0,0-2.7-1,6.76,6.76,0,0,0-4.14,1.5,13,13,0,0,0-3.93,4.86,43.49,43.49,0,0,0-2,7.47Z"/><path class="cls-1" d="M240.55,346.67h-8.61l8.21-33h7.61l-.3,2.65a12.78,12.78,0,0,1,4.32-2.59,16.46,16.46,0,0,1,5.92-.29,9.25,9.25,0,0,1,5.71,2.81,7.81,7.81,0,0,1,2.25,5.82,32.41,32.41,0,0,1-.84,5.94l-3.9,18.62H252.3l4-19a27,27,0,0,0,.63-4,3.39,3.39,0,0,0-1-2.55,3.71,3.71,0,0,0-2.7-1,6.76,6.76,0,0,0-4.14,1.5,13,13,0,0,0-3.93,4.86,43.49,43.49,0,0,0-2,7.47Z"/><path class="cls-1" d="M616.38,347.33h-8.61l8.21-33h7.61l-.3,2.65a12.78,12.78,0,0,1,4.32-2.59,16.46,16.46,0,0,1,5.92-.29,9.25,9.25,0,0,1,5.71,2.81,7.81,7.81,0,0,1,2.25,5.82,32.41,32.41,0,0,1-.84,5.94l-3.9,18.62h-8.61l4-19a27,27,0,0,0,.63-4,3.39,3.39,0,0,0-1-2.55,3.71,3.71,0,0,0-2.7-1,6.76,6.76,0,0,0-4.14,1.5,13,13,0,0,0-3.93,4.86,43.49,43.49,0,0,0-2,7.47Z"/><path class="cls-1" d="M112.74,314.83h8.61l-6.66,31.85h-8.61Zm2.52-12.12h8.61l-1.62,7.8h-8.61Z"/><path class="cls-1" d="M172.81,323.85l-8.4.28c1-2.84,2.63-6.06,5-7.66s5.55-2.4,9.49-2.4q6.15,0,9.09,2.47a7.62,7.62,0,0,1,2.94,6,19.72,19.72,0,0,1-.25,3.06q-.25,1.62-1.78,8.52a43.76,43.76,0,0,0-1.26,8,16.43,16.43,0,0,0,.72,4.53H180a14.9,14.9,0,0,1-.63-2.6,14.21,14.21,0,0,1-3.58,2.29,15.33,15.33,0,0,1-5.71,1.06,8.83,8.83,0,0,1-6.54-2.59,9.06,9.06,0,0,1-2.58-6.67,9.65,9.65,0,0,1,2.83-7.29c1.89-1.82,4-3.54,9.1-4.22a40.31,40.31,0,0,1,9.24-.31c.39.06.54-2.16.54-2.88a2.9,2.9,0,0,0-1.11-2.31,5,5,0,0,0-3.3-.93,6.2,6.2,0,0,0-3.64.94A4.69,4.69,0,0,0,172.81,323.85Zm8,8.6c-.2-.38-1-.35-1.87-.23q-6.48.78-8.46,2.28a3.47,3.47,0,0,0-1.41,2.91,3.37,3.37,0,0,0,1.08,2.53,4,4,0,0,0,2.85,1,7.53,7.53,0,0,0,3.67-.95,6.46,6.46,0,0,0,2.58-2.43,16.6,16.6,0,0,0,1.51-4.63Z"/><path class="cls-1" d="M201.42,314.83H210l-3.93,18.86a31.22,31.22,0,0,0-.72,3.23,3.18,3.18,0,0,0,1,2.37,3.59,3.59,0,0,0,2.61,1,6.12,6.12,0,0,0,2.25-.44,9.65,9.65,0,0,0,2.28-1.32,12.11,12.11,0,0,0,2.1-2,12.88,12.88,0,0,0,1.74-3,13.34,13.34,0,0,0,1.23-3.5l3.18-15.17h8.61l-6.66,31.85h-8l.9-2.32c-3.24,2.44-5.35,3.07-9.49,3.07-2.62,0-6.68-.75-8.18-2.25a8.15,8.15,0,0,1-2.25-6,40.91,40.91,0,0,1,1-6.57Z"/><path class="cls-1" d="M276.51,314.83h8.61l-6.66,31.85h-8.61ZM279,302.71h8.61l-1.62,7.8h-8.61Z"/><path class="cls-1" d="M308.5,334.68l8.37.35c-1.38,3.72-3.42,7.55-6.12,9.49a15.67,15.67,0,0,1-9.39,2.91q-6.09,0-9.66-3.63t-3.57-10A22.87,22.87,0,0,1,290.3,324a16.56,16.56,0,0,1,6.51-7.27,18,18,0,0,1,9.54-2.65q5.64,0,9,2.94c2.24,2,3.5,5.54,3.78,8.74l-8.19-.13a6.17,6.17,0,0,0-1.63-3.93,4.88,4.88,0,0,0-3.49-1.26,7,7,0,0,0-4.65,1.86,11.75,11.75,0,0,0-3.31,5.56,23.38,23.38,0,0,0-1.15,6.94,6.27,6.27,0,0,0,1.38,4.35,4.45,4.45,0,0,0,3.45,1.53,6.4,6.4,0,0,0,4-1.5A9.69,9.69,0,0,0,308.5,334.68Z"/><path class="cls-1" d="M322.33,333.45q0-8.85,5-14.11t13.12-5.26q7,0,11,3.88t4,10.45a19.61,19.61,0,0,1-4.95,13.38q-4.95,5.64-13.25,5.64a17.11,17.11,0,0,1-8-1.8,11.74,11.74,0,0,1-5.19-5.1A15.16,15.16,0,0,1,322.33,333.45Zm24.53-6.15a6.76,6.76,0,0,0-1.78-4.9,6.12,6.12,0,0,0-4.6-1.84,7.71,7.71,0,0,0-4.95,1.72,11.08,11.08,0,0,0-3.36,5,17.73,17.73,0,0,0-1.2,6,7.67,7.67,0,0,0,1.86,5.43,6.1,6.1,0,0,0,4.68,2,7.31,7.31,0,0,0,5.94-3A16.22,16.22,0,0,0,346.86,327.3Z"/><path class="cls-1" d="M365,314.83h8.1l-.48,1.71a10.88,10.88,0,0,1,7.52-3.49,11.68,11.68,0,0,1,6.5,1.63c1.56,1.06,2,2.43,2.31,4.19a14.6,14.6,0,0,1,5.06-4.25,16.09,16.09,0,0,1,7.44-.75,11.92,11.92,0,0,1,5.94,3.13c1.42,1.36,2.19,3.94,2,6.67a25.09,25.09,0,0,1-.74,3.56l-4.08,19.46h-8.61L400,327.21q.75-3.66.75-4.14A2.76,2.76,0,0,0,400,321a3.32,3.32,0,0,0-2.38-.76q-3.21,0-5.73,3.39-1.83,2.43-3.12,8.61l-3,14.45h-8.61l4-19.25a28.35,28.35,0,0,0,.69-4.32A2.73,2.73,0,0,0,381,321a3.28,3.28,0,0,0-2.35-.81,6,6,0,0,0-2.91.84,8.56,8.56,0,0,0-2.62,2.31,13.62,13.62,0,0,0-1.93,3.78q-.36,1.08-1.17,4.89l-3.06,14.63h-8.61Z"/><path class="cls-1" d="M430.22,346.67l9.18-44h9.06l-2.9,15.68,19.33-15.68H477L457.27,320l14.48,26.72H461.53l-10.86-21.93-7.55,5.47-3.82,16.46Z"/><path class="cls-1" d="M481.2,314.83h8.61l-3,14.28a43.3,43.3,0,0,0-1.23,6.1c0,.92-.1,2.42.58,3.08a3.59,3.59,0,0,0,2.61,1,6.12,6.12,0,0,0,2.25-.44,11,11,0,0,0,2.47-1.29,19.81,19.81,0,0,0,2.33-2.14,10.38,10.38,0,0,0,1.73-2.8,27.67,27.67,0,0,0,1-3.59l3-14.19h8.61l-6.66,31.85h-7.72l.58-2.32c-3.46,2.82-7.35,3.07-11.49,3.07a8.35,8.35,0,0,1-6.18-2.25,8.15,8.15,0,0,1-2.25-6,40.91,40.91,0,0,1,1-6.57Z"/><path class="cls-1" d="M511.88,346.67l9.18-44h8.64L527,315.63a9.21,9.21,0,0,1,4.31-2,17,17,0,0,1,5.78,0,10.84,10.84,0,0,1,6.51,3.75q3,3.37,3,9.82a25.5,25.5,0,0,1-1.42,8.44,18.61,18.61,0,0,1-3.81,6.66,16.65,16.65,0,0,1-5,3.81,16,16,0,0,1-5.5,1.25c-3.32.31-7.82-.25-10.52-3.77l-.64,3Zm11.6-13a7.49,7.49,0,0,0,1.81,5.22,5.59,5.59,0,0,0,4.27,2,6.54,6.54,0,0,0,4.12-1.56,11.37,11.37,0,0,0,3.27-5,19.21,19.21,0,0,0,1.3-6.9,7.63,7.63,0,0,0-1.75-5.32,5.52,5.52,0,0,0-4.24-1.93,6.91,6.91,0,0,0-5.58,3A16.49,16.49,0,0,0,523.49,333.69Z"/><path class="cls-1" d="M580.64,333.42H559.05c0,.34,0,.6,0,.78a7.22,7.22,0,0,0,1.81,5.13,5.81,5.81,0,0,0,4.42,1.95q4.29,0,6.69-4.44l7.71.29c-1.5,3.1-3.5,6.42-6,8a15.74,15.74,0,0,1-8.44,2.32,14,14,0,0,1-10.44-4.06q-4-4.06-4-10.75A19.56,19.56,0,0,1,554.38,321q4.95-6.9,14.12-6.9a12.25,12.25,0,0,1,9.3,3.61q3.45,3.61,3.45,10.12A24,24,0,0,1,580.64,333.42Zm-7.26-6.25q0-.57,0-.87a5.21,5.21,0,0,0-1.59-4.31,5.44,5.44,0,0,0-4.26-1.77,6.76,6.76,0,0,0-4.78,2,7.82,7.82,0,0,0-2.86,4.94Z"/><path class="cls-1" d="M590,314.83h8l-.55,2.63c3.65-3.4,6.4-3.6,9-3.38a12.15,12.15,0,0,1,4,.93l-3.3,7a7.33,7.33,0,0,0-2.49-.42,7.65,7.65,0,0,0-4.51,1.68c-1.53,1.12-3.12,4.3-4,6.17a35.27,35.27,0,0,0-2.15,7.2l-2.1,10h-8.61Z"/><path class="cls-1" d="M676.22,333.42H654.62c0,.34,0,.6,0,.78a7.22,7.22,0,0,0,1.81,5.13,5.81,5.81,0,0,0,4.42,1.95q4.29,0,6.69-4.44l7.71.29c-1.5,3.1-3.5,6.42-6,8a15.74,15.74,0,0,1-8.44,2.32,14,14,0,0,1-10.44-4.06q-4-4.06-4-10.75A19.56,19.56,0,0,1,649.95,321q4.95-6.9,14.12-6.9a12.25,12.25,0,0,1,9.3,3.61q3.45,3.61,3.45,10.12A24,24,0,0,1,676.22,333.42ZM669,327.17q0-.57,0-.87A5.21,5.21,0,0,0,667.4,322a5.44,5.44,0,0,0-4.26-1.77,6.76,6.76,0,0,0-4.78,2,7.82,7.82,0,0,0-2.86,4.94Z"/><path class="cls-1" d="M681.52,321.21l1.32-6.39H687l2-11.1,8.87.06-2.31,11h5.25l-1.32,6.39H694.3l-2.79,13.34a41.53,41.53,0,0,0-.75,4.14,2,2,0,0,0,.63,1.54,3.51,3.51,0,0,0,2.28.55q.57,0,2.85-.21L695.17,347a22.9,22.9,0,0,1-4.56.45q-4.56,0-6.63-1.75a6,6,0,0,1-2.07-4.87A45.56,45.56,0,0,1,683,334l2.67-12.8Z"/><path class="cls-1" d="M730.82,333.42H709.23c0,.34,0,.6,0,.78a7.22,7.22,0,0,0,1.81,5.13,5.81,5.81,0,0,0,4.42,1.95q4.29,0,6.69-4.44l7.71.29c-1.5,3.1-3.5,6.42-6,8a15.74,15.74,0,0,1-8.44,2.32,14,14,0,0,1-10.44-4.06q-4-4.06-4-10.75A19.56,19.56,0,0,1,704.55,321q4.95-6.9,14.12-6.9a12.25,12.25,0,0,1,9.3,3.61q3.45,3.61,3.45,10.12A24,24,0,0,1,730.82,333.42Zm-7.26-6.25q0-.57,0-.87A5.21,5.21,0,0,0,722,322a5.44,5.44,0,0,0-4.26-1.77,6.76,6.76,0,0,0-4.78,2,7.82,7.82,0,0,0-2.86,4.94Z"/><path class="cls-1" d="M732.86,336.77l8.34-.32a6.8,6.8,0,0,0,7.26,4.83,7.68,7.68,0,0,0,4.71-1.32,2.65,2.65,0,0,0,1.23-2.19,2.25,2.25,0,0,0-.63-1.56,10.91,10.91,0,0,0-3.57-1.62q-7.8-2.58-9.66-4.08a7.48,7.48,0,0,1-2.91-6.12,8.74,8.74,0,0,1,2.82-6.51q3.93-3.81,11.67-3.81,6.15,0,9.3,2.25c2.1,1.5,3.43,4.53,4,7.09l-7.95.38a4.91,4.91,0,0,0-2-2.61A8.7,8.7,0,0,0,750.8,320a6.52,6.52,0,0,0-3.88.9,2.58,2.58,0,0,0-1.18,2.07,2.3,2.3,0,0,0,1.2,2,28.18,28.18,0,0,0,4.83,1.68q6.3,1.83,8.43,3.6a7.55,7.55,0,0,1,3,6,10.13,10.13,0,0,1-3.81,7.86q-3.81,3.33-10.74,3.33T738,344.89C735.47,343.2,733.76,339.83,732.86,336.77Z"/><path class="cls-1" d="M785.25,346.67l9.18-44H827l-1.53,7.35H802l-2.1,10h22.76l-1.53,7.35H798.33l-2.76,11.94h25.58l-1.56,7.35Z"/><path class="cls-1" d="M863.22,348.35l8.95.13a9.83,9.83,0,0,0,.59,3.27,3.49,3.49,0,0,0,1.45,1.2,6.29,6.29,0,0,0,2.74.5,7.89,7.89,0,0,0,4.38-1.08,5.92,5.92,0,0,0,2-2.7,33.37,33.37,0,0,0,1.23-5.1l-.08.42c-2.38,1.86-5.82,2.24-8.85,1.8s-5.68-1.1-7.68-3.3-3-5.42-3-9.66a25.46,25.46,0,0,1,2-10.29,21.24,21.24,0,0,1,5.79-7.75,14.75,14.75,0,0,1,7-3.12c2.13-.37,5.43-.71,7.63.69a8.8,8.8,0,0,1,3,2.82l.26-2.45,8.78.09-5.52,27.54a88.56,88.56,0,0,1-2.28,9.12,16,16,0,0,1-2.13,4.35,10.31,10.31,0,0,1-3,2.71,13.24,13.24,0,0,1-4.32,1.57,28.59,28.59,0,0,1-5.4.48q-6.75,0-10.2-2.31t-3.45-7.68A9.77,9.77,0,0,1,863.22,348.35ZM873.36,333A8.27,8.27,0,0,0,875,338.5a5.17,5.17,0,0,0,4.09,1.9,6.88,6.88,0,0,0,4.36-1.71,10.68,10.68,0,0,0,3.24-4.86,18,18,0,0,0,1.12-6.09,7.94,7.94,0,0,0-1.83-5.46,5.51,5.51,0,0,0-4.23-2.07,6.06,6.06,0,0,0-4.24,1.83,13.48,13.48,0,0,0-3.19,5.64A17.22,17.22,0,0,0,873.36,333Z"/><path class="cls-1" d="M907.84,314.83h8.61l-6.66,31.85h-8.61Zm2.52-12.12H919l-1.62,7.8h-8.61Z"/><path class="cls-1" d="M986.77,333.42H965.18c0,.34,0,.6,0,.78a7.22,7.22,0,0,0,1.81,5.13,5.81,5.81,0,0,0,4.42,1.95q4.29,0,6.69-4.44l7.71.29c-1.5,3.1-3.5,6.42-6,8a15.74,15.74,0,0,1-8.44,2.32,14,14,0,0,1-10.44-4.06q-4-4.06-4-10.75A19.56,19.56,0,0,1,960.5,321q4.95-6.9,14.12-6.9a12.25,12.25,0,0,1,9.3,3.61q3.45,3.61,3.45,10.12A24,24,0,0,1,986.77,333.42Zm-7.26-6.25q0-.57,0-.87A5.21,5.21,0,0,0,978,322a5.44,5.44,0,0,0-4.26-1.77,6.76,6.76,0,0,0-4.78,2,7.82,7.82,0,0,0-2.86,4.94Z"/><path class="cls-1" d="M834.71,346.67h-8.61l8.21-33h7.61l-.3,2.65a12.78,12.78,0,0,1,4.32-2.59,16.46,16.46,0,0,1,5.92-.29,9.25,9.25,0,0,1,5.71,2.81,7.81,7.81,0,0,1,2.25,5.82,32.41,32.41,0,0,1-.84,5.94l-3.9,18.62h-8.61l4-19a27,27,0,0,0,.63-4,3.39,3.39,0,0,0-1-2.55,3.71,3.71,0,0,0-2.7-1,6.76,6.76,0,0,0-4.14,1.5,13,13,0,0,0-3.93,4.86,43.49,43.49,0,0,0-2,7.47Z"/><path class="cls-1" d="M926.57,347H918l8.21-33h7.61l-.3,2.65a12.78,12.78,0,0,1,4.32-2.59,16.46,16.46,0,0,1,5.92-.29,9.25,9.25,0,0,1,5.71,2.81,7.81,7.81,0,0,1,2.25,5.82,32.41,32.41,0,0,1-.84,5.94L946.94,347h-8.61l4-19a27,27,0,0,0,.63-4,3.39,3.39,0,0,0-1-2.55,3.71,3.71,0,0,0-2.7-1,6.76,6.76,0,0,0-4.14,1.5,13,13,0,0,0-3.93,4.86,43.49,43.49,0,0,0-2,7.47Z"/><line class="cls-2" x1="18.92" y1="272.71" x2="989.72" y2="272.71"/><path class="cls-1" d="M155.15,30.26S123.41,56,121.21,57.08c1.66,1.66,34.49,26.08,34.49,26.08l33.94-26.45S158.46,32.55,155.15,30.26Z"/><path class="cls-1" d="M116.65,60.4S88.51,81.64,82,85.09C86.85,89,116.65,111,116.65,111l34.49-24.56Z"/><path class="cls-1" d="M77.33,88.13s-29.8,20-37.94,23.73c4.28,1.93,37,21.39,38.77,22.77,2.21-.83,33.11-19.87,33.53-20.56Z"/><path class="cls-1" d="M194.05,59.15s33,22.49,35.73,24c-.55.69-33.94,26.63-33.94,26.63L160.39,86.33Z"/><path class="cls-1" d="M234.62,85.71s26.08,16.35,38.36,22.7c-2.48,1.38-38.36,24.14-38.36,24.14l-33.8-19.87Z"/><path class="cls-1" d="M155.42,89.51s34.63,23.59,35.87,23.59c-.69.28-34.63,24.42-34.63,24.42L121.2,114.34Z"/><polygon class="cls-1" points="116.58 117.65 151.15 140.69 118.58 161.67 83.4 138.21 116.58 117.65"/><path class="cls-1" d="M156.25,143.73l35,20s-26.35,19.59-33.8,26.77c-2.07-1.66-32.42-25.39-34.08-25.53C125.76,164,156.25,143.73,156.25,143.73Z"/><path class="cls-1" d="M196.12,116s31.59,19.45,33.66,19.87c-1.52,1-34.7,24.56-34.7,24.56l-33.46-19.59Z"/><path class="cls-1" d="M61.88,129.52s63.05,38.08,95.48,66.23c2.76-2.76,72.71-58.36,93.54-68.43,9.8,6.07,22.07,12.35,22.07,12.35s-80.85,50.84-115.62,82.16c-8.28-8.55-87.34-65.26-117.27-78.64C41.73,142.35,61.88,129.52,61.88,129.52Z"/><path class="cls-1" d="M62.43,161.67s70.92,41,94.92,65.26c8.55-6.62,82-62.91,95.48-68.43,8.28,5.52,21.11,12,21.11,12S197.07,217,158.45,253.42c-13.24-13-99.61-72.16-118.37-78.85C46.84,171.36,62.43,161.67,62.43,161.67Z"/></svg>